<svg width="235" height="84" viewBox="0 0 235 84" fill="none" xmlns="http://www.w3.org/2000/svg">
<path d="M25.7799 57.483C23.5586 56.2826 21.4745 55.0719 19.3121 54.0191C18.2093 53.4821 17.8569 52.8236 18.0503 51.644C19.0878 45.3168 20.2308 39.0002 21.0072 32.6404C21.346 29.8661 22.561 28.2094 24.9153 26.8467C28.1956 24.948 31.31 22.762 34.4447 20.626C35.6061 19.8345 36.5329 19.7871 37.7996 20.5206C43.1192 23.601 48.4994 26.5797 53.8889 29.5396C54.8527 30.0689 55.1292 30.6849 54.9477 31.7186C53.7465 38.5588 52.5653 45.4024 51.421 52.2521C51.2585 53.2253 50.8398 53.8918 50.0095 54.4196C45.7251 57.1429 41.449 59.8794 37.2003 62.6567C36.3852 63.1895 35.7567 63.045 34.9936 62.6122C31.9706 60.8978 28.9231 59.2257 25.7799 57.483Z" fill="#DE4528"/>
<path d="M67.124 62.4658C68.1023 62.8584 69.0008 63.1368 70 64.0077C58.7614 70.7349 47.6454 77.3888 36.6006 84C35.835 83.4435 36.0193 82.8538 36.0199 82.3439C36.0255 77.3858 36.0937 72.4274 36.0486 67.4699C36.0356 66.044 36.5649 65.1793 37.7816 64.432C41.999 61.8416 46.1682 59.1738 50.3215 56.4839C51.271 55.869 52.0793 55.8691 53.0892 56.3206C57.713 58.3879 62.3659 60.3921 67.124 62.4658Z" fill="#AE3821"/>
<path d="M58.3186 19.3773C51.2841 18.9936 44.3943 18.7537 37.5279 18.1127C36.5704 18.0233 36.0196 17.7686 36.0211 16.7008C36.0283 11.4232 36.0048 6.14562 36 0.868038C35.9999 0.715745 36.0872 0.563373 36.2592 0C46.9099 6.49564 57.4549 12.9269 68 19.3581C67.9381 19.5721 67.8762 19.786 67.8142 20C64.7 19.7936 61.5858 19.5872 58.3186 19.3773Z" fill="#AE3821"/>
<path d="M32 1C31.1837 3.73493 29.7763 6.14115 28.6319 8.67731C26.0427 14.4156 23.3391 20.097 20.7018 25.8116C20.3035 26.6746 19.9306 27.3152 18.8385 26.8361C13.7344 24.5967 8.61472 22.3965 3.5031 20.176C3.31826 20.0957 3.1596 19.9491 3.00325 19.8432C2.95172 19.0906 3.52432 18.9145 3.93643 18.6493C12.9752 12.8329 22.02 7.02678 31.0698 1.22928C31.3201 1.06889 31.6382 1.02492 32 1Z" fill="#AE3821"/>
<path d="M0.000176564 43.4058C-2.19723e-07 37.1819 0 31.1194 0 25C0.939783 25.1175 1.01573 25.7927 1.24622 26.2816C5.39161 35.0754 9.52273 43.8761 13.6541 52.6765C13.9242 53.2517 14.3367 53.8397 13.5145 54.3412C9.22037 56.9602 4.82703 59.3982 0.000362937 62C0.000362937 55.6278 0.000362669 49.5975 0.000176564 43.4058Z" fill="#AE3821"/>
<path d="M13.7315 71.0989C9.72506 68.6841 5.81684 66.333 2 64.0368C2.13431 63.3244 2.50369 63.1727 2.81991 62.9939C6.72143 60.788 10.6404 58.6121 14.5247 56.3769C15.5582 55.7822 16.1879 55.839 16.859 56.925C21.7492 64.8381 26.6942 72.7178 31.6089 80.6161C31.814 80.9457 32.1985 81.2587 31.8757 82C25.8333 78.3713 19.8315 74.7669 13.7315 71.0989Z" fill="#AE3821"/>
<path d="M62.4064 40.3775C60.9906 37.2217 59.6387 34.1712 58.255 31.137C57.9483 30.4645 57.7941 29.9062 58.5281 29.4478C62.4367 27.0069 66.3405 24.5576 70.2531 22.124C70.4117 22.0253 70.6415 22.055 71 22C71 34.3493 71 46.6007 71 58.8521C70.8574 58.9014 70.7148 58.9507 70.5722 59C67.8678 52.8296 65.1633 46.6591 62.4064 40.3775Z" fill="#AE3821"/>
<path d="M6.14843 23.8799C10.1138 25.5967 13.9671 27.2701 17.8285 28.9227C18.6288 29.2651 19.1259 29.7276 18.9722 30.7366C18.0001 37.1183 17.0478 43.5033 16.0794 49.8856C16.0495 50.0828 15.9159 50.2628 15.5817 51C11.2912 41.4744 7.17544 32.3368 3 23.0666C4.28953 22.7648 5.10236 23.5688 6.14843 23.8799Z" fill="#D74326"/>
<path d="M66.4704 56.0739C67.3546 58.0334 68.1921 59.881 69 61.663C68.4758 62.278 68.1006 61.8933 67.7593 61.7377C63.2605 59.6864 58.7685 57.6193 54.2755 55.5544C53.4876 55.1923 52.8341 54.8631 53.0375 53.6659C54.084 47.5062 55.0445 41.3309 56.0464 35.163C56.087 34.913 56.2418 34.6828 56.5316 34C59.9326 41.5507 63.1782 48.7563 66.4704 56.0739Z" fill="#D74326"/>
<path d="M32.4969 64.6225C34.5053 65.3546 35.0938 66.6446 34.9883 68.6271C34.8048 72.0719 34.9271 75.5319 34.901 78.9854C34.8969 79.5312 35.0569 80.1207 34.3238 81C29.4869 73.3761 24.7435 65.8995 20 58.4229C20.122 58.2819 20.244 58.141 20.366 58C24.3757 60.1888 28.3854 62.3777 32.4969 64.6225Z" fill="#D74326"/>
<path d="M50.5675 25.8096C47.3103 24.0303 44.1552 22.3037 41 20.5771C41.0552 20.3847 41.1104 20.1924 41.1656 20C49.439 20.4979 57.7123 20.9959 66 21.4947C65.9287 22.3535 65.4285 22.4891 65.0413 22.7113C62.2996 24.2848 59.5228 25.8038 56.821 27.4383C55.7123 28.1091 54.7857 28.2382 53.6725 27.5006C52.7282 26.8749 51.6746 26.4025 50.5675 25.8096Z" fill="#D74326"/>
<path d="M29.8954 20.7942C27.4584 22.217 25.1354 23.5827 22.8065 24.9401C22.719 24.991 22.5731 24.9615 22 25C26.0569 17.54 30.0128 10.2656 33.964 3C34.9437 3.27947 34.6558 3.8597 34.6905 4.28271C35.006 8.12176 34.8883 11.9704 34.9975 15.8138C35.0376 17.2224 34.5948 18.1747 33.1772 18.8492C32.0627 19.3796 31.0605 20.0998 29.8954 20.7942Z" fill="#D74326"/>
<path d="M90.5957 55H85.2344V29.3008H99.9648V33.7656H90.5957V40.3926H99.3145V44.8398H90.5957V55ZM112.621 34.9434C115.258 34.9434 117.279 35.5176 118.686 36.666C120.092 37.8145 120.795 39.5605 120.795 41.9043V55H117.051L116.014 52.3281H115.873C115.311 53.0312 114.736 53.6055 114.15 54.0508C113.564 54.4961 112.891 54.8242 112.129 55.0352C111.367 55.2461 110.441 55.3516 109.352 55.3516C108.191 55.3516 107.148 55.1289 106.223 54.6836C105.309 54.2383 104.588 53.5586 104.061 52.6445C103.533 51.7188 103.27 50.5469 103.27 49.1289C103.27 47.043 104.002 45.5078 105.467 44.5234C106.932 43.5273 109.129 42.9766 112.059 42.8711L115.469 42.7656V41.9043C115.469 40.873 115.199 40.1172 114.66 39.6367C114.121 39.1562 113.371 38.916 112.41 38.916C111.461 38.916 110.529 39.0508 109.615 39.3203C108.701 39.5898 107.787 39.9297 106.873 40.3398L105.098 36.7188C106.141 36.168 107.307 35.7344 108.596 35.418C109.896 35.1016 111.238 34.9434 112.621 34.9434ZM115.469 45.8945L113.395 45.9648C111.66 46.0117 110.453 46.3223 109.773 46.8965C109.105 47.4707 108.771 48.2266 108.771 49.1641C108.771 49.9844 109.012 50.5703 109.492 50.9219C109.973 51.2617 110.6 51.4316 111.373 51.4316C112.521 51.4316 113.488 51.0918 114.273 50.4121C115.07 49.7324 115.469 48.7656 115.469 47.5117V45.8945ZM134.312 55.3516C132.367 55.3516 130.709 55 129.338 54.2969C127.967 53.582 126.924 52.4805 126.209 50.9922C125.494 49.5039 125.137 47.5996 125.137 45.2793C125.137 42.877 125.541 40.9199 126.35 39.4082C127.17 37.8848 128.301 36.7656 129.742 36.0508C131.195 35.3359 132.877 34.9785 134.787 34.9785C136.146 34.9785 137.318 35.1133 138.303 35.3828C139.299 35.6406 140.166 35.9512 140.904 36.3145L139.322 40.4629C138.479 40.123 137.693 39.8477 136.967 39.6367C136.24 39.4141 135.514 39.3027 134.787 39.3027C133.85 39.3027 133.07 39.5254 132.449 39.9707C131.828 40.4043 131.365 41.0605 131.061 41.9395C130.756 42.8184 130.604 43.9199 130.604 45.2441C130.604 46.5449 130.768 47.623 131.096 48.4785C131.424 49.334 131.898 49.9727 132.52 50.3945C133.141 50.8047 133.896 51.0098 134.787 51.0098C135.9 51.0098 136.891 50.8633 137.758 50.5703C138.625 50.2656 139.469 49.8438 140.289 49.3047V53.8926C139.469 54.4082 138.607 54.7773 137.705 55C136.814 55.2344 135.684 55.3516 134.312 55.3516ZM152.963 34.9785C154.779 34.9785 156.344 35.3301 157.656 36.0332C158.969 36.7246 159.982 37.7324 160.697 39.0566C161.412 40.3809 161.77 41.998 161.77 43.9082V46.5098H149.096C149.154 48.0215 149.605 49.2109 150.449 50.0781C151.305 50.9336 152.488 51.3613 154 51.3613C155.254 51.3613 156.402 51.2324 157.445 50.9746C158.488 50.7168 159.561 50.3301 160.662 49.8145V53.9629C159.689 54.4434 158.67 54.7949 157.604 55.0176C156.549 55.2402 155.266 55.3516 153.754 55.3516C151.785 55.3516 150.039 54.9883 148.516 54.2617C147.004 53.5352 145.814 52.4277 144.947 50.9395C144.092 49.4512 143.664 47.5762 143.664 45.3145C143.664 43.0176 144.051 41.1074 144.824 39.584C145.609 38.0488 146.699 36.9004 148.094 36.1387C149.488 35.3652 151.111 34.9785 152.963 34.9785ZM152.998 38.793C151.955 38.793 151.088 39.127 150.396 39.7949C149.717 40.4629 149.324 41.5117 149.219 42.9414H156.742C156.73 42.1445 156.584 41.4355 156.303 40.8145C156.033 40.1934 155.623 39.7012 155.072 39.3379C154.533 38.9746 153.842 38.793 152.998 38.793ZM174.408 51.0801C174.994 51.0801 175.562 51.0215 176.113 50.9043C176.676 50.7871 177.232 50.6406 177.783 50.4648V54.4551C177.209 54.7129 176.494 54.9238 175.639 55.0879C174.795 55.2637 173.869 55.3516 172.861 55.3516C171.689 55.3516 170.635 55.1641 169.697 54.7891C168.771 54.4023 168.039 53.7402 167.5 52.8027C166.973 51.8535 166.709 50.5352 166.709 48.8477V39.373H164.143V37.1055L167.096 35.3125L168.643 31.1641H172.07V35.3477H177.572V39.373H172.07V48.8477C172.07 49.5977 172.281 50.1602 172.703 50.5352C173.137 50.8984 173.705 51.0801 174.408 51.0801ZM180.033 47.5469V43.1523H189.473V47.5469H180.033ZM201.285 29.3008C203.617 29.3008 205.539 29.582 207.051 30.1445C208.574 30.707 209.705 31.5566 210.443 32.6934C211.182 33.8301 211.551 35.2656 211.551 37C211.551 38.1719 211.328 39.1973 210.883 40.0762C210.438 40.9551 209.852 41.6992 209.125 42.3086C208.398 42.918 207.613 43.416 206.77 43.8027L214.328 55H208.281L202.146 45.1387H199.246V55H193.797V29.3008H201.285ZM200.898 33.7656H199.246V40.709H201.004C202.809 40.709 204.098 40.4102 204.871 39.8125C205.656 39.2031 206.049 38.3125 206.049 37.1406C206.049 35.9219 205.627 35.0547 204.783 34.5391C203.951 34.0234 202.656 33.7656 200.898 33.7656ZM232.732 47.8633C232.732 49.3867 232.363 50.7109 231.625 51.8359C230.887 52.9609 229.809 53.8281 228.391 54.4375C226.984 55.0469 225.273 55.3516 223.258 55.3516C222.367 55.3516 221.494 55.293 220.639 55.1758C219.795 55.0586 218.98 54.8887 218.195 54.666C217.422 54.4316 216.684 54.1445 215.98 53.8047V48.7422C217.199 49.2812 218.465 49.7676 219.777 50.2012C221.09 50.6348 222.391 50.8516 223.68 50.8516C224.57 50.8516 225.285 50.7344 225.824 50.5C226.375 50.2656 226.773 49.9434 227.02 49.5332C227.266 49.123 227.389 48.6543 227.389 48.127C227.389 47.4824 227.172 46.9316 226.738 46.4746C226.305 46.0176 225.707 45.5898 224.945 45.1914C224.195 44.793 223.346 44.3652 222.396 43.9082C221.799 43.627 221.148 43.2871 220.445 42.8887C219.742 42.4785 219.074 41.9805 218.441 41.3945C217.809 40.8086 217.287 40.0996 216.877 39.2676C216.479 38.4238 216.279 37.416 216.279 36.2441C216.279 34.709 216.631 33.3965 217.334 32.3066C218.037 31.2168 219.039 30.3848 220.34 29.8105C221.652 29.2246 223.199 28.9316 224.98 28.9316C226.316 28.9316 227.588 29.0898 228.795 29.4062C230.014 29.7109 231.285 30.1562 232.609 30.7422L230.852 34.9785C229.668 34.498 228.607 34.1289 227.67 33.8711C226.732 33.6016 225.777 33.4668 224.805 33.4668C224.125 33.4668 223.545 33.5781 223.064 33.8008C222.584 34.0117 222.221 34.3164 221.975 34.7148C221.729 35.1016 221.605 35.5527 221.605 36.0684C221.605 36.6777 221.781 37.1934 222.133 37.6152C222.496 38.0254 223.035 38.4238 223.75 38.8105C224.477 39.1973 225.379 39.6484 226.457 40.1641C227.77 40.7852 228.889 41.4355 229.814 42.1152C230.752 42.7832 231.473 43.5742 231.977 44.4883C232.48 45.3906 232.732 46.5156 232.732 47.8633Z" fill="#AE3821"/>
</svg>
